<svg xmlns="http://www.w3.org/2000/svg" xmlns:xlink="http://www.w3.org/1999/xlink" width="794" zoomAndPan="magnify" viewBox="0 0 595.5 376.499989" height="502" preserveAspectRatio="xMidYMid meet" version="1.0"><defs><clipPath id="d3de71debb"><path d="M 0.144531 1 L 594.855469 1 L 594.855469 375 L 0.144531 375 Z M 0.144531 1 " clip-rule="nonzero"/></clipPath></defs><g clip-path="url(#d3de71debb)"><path fill="#000000" d="M 301.898438 21.832031 C 304.058594 21.832031 306.214844 21.9375 308.375 21.804688 C 309.941406 21.695312 310.855469 21.101562 310.289062 19.050781 C 308.671875 13.089844 311.074219 8.777344 315.632812 4.730469 C 320.679688 0.226562 325.453125 0.253906 330.90625 3.246094 C 332.792969 4.296875 334.925781 3.8125 336.949219 3.757812 C 340.132812 3.679688 343.15625 3.976562 345.988281 5.621094 C 349.171875 7.453125 352.035156 5.054688 354.949219 4.515625 C 356.972656 4.136719 359.128906 3.707031 361.179688 3.058594 C 363.3125 2.410156 364.796875 4.324219 364.527344 6.320312 C 363.5 14.546875 369.328125 18.972656 374.457031 23.234375 C 377.75 25.957031 382.632812 26.738281 387.003906 25.417969 C 393.535156 23.449219 400.523438 23.152344 406.726562 19.859375 C 409.023438 18.648438 413.3125 21.34375 414.851562 24.417969 C 415.550781 25.847656 415.957031 27.441406 416.578125 28.921875 C 416.953125 29.8125 417.546875 30.675781 418.628906 30.785156 C 419.707031 30.867188 420.003906 29.867188 420.328125 29.085938 C 421.515625 26.226562 422.890625 23.394531 423.648438 20.425781 C 424.242188 18.082031 424.078125 15.625 422.378906 13.386719 C 420.140625 10.449219 420.785156 6.078125 423.429688 3.730469 C 425.671875 1.734375 430.5 1.816406 432.902344 4.21875 C 438.730469 10.015625 443.480469 16.625 447.121094 23.960938 C 448.472656 26.710938 450.199219 28.464844 453.464844 28.519531 C 456 28.546875 458.210938 29.707031 458.941406 32.242188 C 459.75 34.992188 458.535156 37.3125 456.296875 39.011719 C 451.980469 42.328125 451.980469 42.328125 453.515625 47.589844 C 454.085938 49.503906 454.058594 51.390625 453.113281 53.253906 C 452.195312 55.085938 452.410156 56.21875 454.757812 57.109375 C 461.476562 59.617188 468.734375 60.238281 475.347656 63.097656 C 476.371094 63.554688 477.316406 62.800781 477.992188 62.207031 C 480.636719 59.941406 483.980469 59.457031 487.136719 58.539062 C 488.917969 58.027344 490.726562 58.429688 492.5625 58.726562 C 494.101562 58.996094 496.339844 59.238281 495.261719 56.136719 C 494.585938 54.167969 494.9375 52.144531 496.90625 51.011719 C 498.742188 49.933594 500.628906 50.203125 502.304688 51.605469 C 504.515625 53.496094 506.972656 54.546875 509.992188 54.277344 C 512.636719 54.035156 514.714844 55.519531 516.65625 57.082031 C 517.820312 58.027344 518.871094 59.132812 519.949219 60.183594 C 524.835938 64.851562 524.835938 64.851562 529.90625 60.640625 C 533.0625 58.027344 536.625 57.21875 540.457031 58.808594 C 544.71875 60.5625 547.042969 63.90625 547.175781 68.546875 C 547.257812 71.429688 547.472656 74.398438 546.609375 77.230469 C 546.097656 78.902344 546.851562 79.628906 548.148438 80.25 C 550.089844 81.167969 552.058594 82.03125 553.976562 83.003906 C 559.722656 85.96875 563.421875 91.148438 566.929688 96.191406 C 569.085938 99.292969 568.277344 103.554688 567.226562 107.195312 C 566.496094 109.703125 566.578125 111.699219 568.140625 113.804688 C 569.84375 116.097656 570.625 118.441406 569.492188 121.570312 C 567.953125 125.832031 571.621094 132.414062 576.695312 135.8125 C 579.664062 137.808594 582.390625 140.046875 583.875 143.445312 C 585.222656 146.519531 585.222656 149.460938 583.28125 152.320312 C 579.773438 157.472656 580.339844 158.28125 583.0625 163.621094 C 585.382812 168.207031 588.59375 171.632812 592.15625 175.058594 C 594.71875 177.511719 594.316406 181.070312 593.371094 183.929688 C 591.996094 188.085938 591.914062 192.425781 591.457031 196.605469 C 590.617188 204.375 591.238281 212.277344 589.890625 220.074219 C 589.214844 224.039062 588.542969 227.867188 585.332031 230.726562 C 583.65625 232.210938 582.28125 234.097656 580.527344 235.472656 C 576.183594 238.792969 576.046875 243 577.667969 247.585938 C 578.503906 249.957031 577.910156 252.007812 576.859375 254.085938 C 574.699219 258.371094 567.765625 260.503906 563.851562 257.804688 C 561.773438 256.375 560.019531 256.054688 557.457031 256.375 C 553.4375 256.917969 549.496094 257.023438 545.609375 258.804688 C 542.238281 260.339844 539.972656 262.605469 538 265.414062 C 535.789062 268.59375 533.898438 271.992188 530.878906 274.527344 C 529.230469 275.929688 528.800781 277.628906 528.882812 279.707031 C 529.015625 282.945312 529.042969 286.179688 528.960938 289.417969 C 528.910156 292.761719 526.34375 295.917969 523.054688 296.539062 C 517.089844 297.671875 513.445312 302.011719 509.859375 306.222656 C 507.808594 308.621094 509.128906 311.667969 509.914062 314.203125 C 510.855469 317.253906 512.339844 320.273438 513.933594 322.941406 C 515.363281 325.34375 518.332031 326.933594 520.785156 328.632812 C 525.050781 331.546875 525.535156 333.679688 523.621094 338.34375 C 522.054688 342.175781 521.136719 346.273438 519.921875 350.265625 C 519.894531 350.375 519.921875 350.507812 519.867188 350.589844 C 514.09375 358.007812 512.988281 368.742188 503.4375 373.542969 C 500.980469 374.78125 499.253906 374.460938 497.933594 372.328125 C 496.664062 370.25 494.855469 369.441406 492.617188 369.253906 C 489.027344 368.957031 485.679688 368.066406 482.847656 365.695312 C 478.558594 362.078125 473.132812 361.457031 467.953125 360.21875 C 459.9375 358.304688 451.65625 357.144531 445.316406 351.15625 C 443.453125 349.375 441.941406 347.246094 440.214844 345.355469 C 434.601562 339.179688 427.828125 334.757812 419.195312 334.351562 C 411.773438 334.027344 411.667969 334.136719 409.535156 326.828125 C 409.265625 325.882812 408.726562 325.34375 407.914062 324.964844 C 404.921875 323.589844 402.492188 321.566406 400.332031 319.085938 C 398.335938 316.765625 395.179688 317.199219 392.589844 316.335938 C 387.625 314.691406 386.707031 313.988281 386.058594 308.621094 C 385.871094 307.058594 385.140625 305.734375 384.222656 304.546875 C 382.226562 302.011719 379.691406 299.9375 377.855469 297.238281 C 377.425781 296.589844 376.480469 296.050781 375.699219 295.890625 C 372.082031 295.1875 369.546875 292.625 366.523438 290.925781 C 359.75 287.097656 352.277344 283.808594 344.503906 283.96875 C 332.578125 284.183594 321.945312 281.273438 312.746094 273.988281 C 305.621094 268.351562 297.230469 265.925781 288.917969 263.148438 C 284.386719 261.636719 280.445312 259.613281 276.640625 256.511719 C 271.703125 252.519531 266.46875 248.445312 259.238281 248.636719 C 255.570312 248.742188 252.140625 246.503906 248.417969 245.804688 C 246.152344 245.371094 245.664062 242.40625 245.070312 240.246094 C 244.585938 238.46875 243.695312 237.632812 241.941406 237.039062 C 238.40625 235.824219 235.089844 233.855469 231.5 232.910156 C 221.785156 230.347656 212.503906 226.355469 202.628906 224.441406 C 200.46875 224.011719 198.121094 223.6875 195.960938 224.820312 C 193.695312 226.035156 191.5625 224.605469 191.132812 223.09375 C 190 219.101562 186.976562 217.835938 183.710938 216.808594 C 175.617188 214.246094 168.601562 209.714844 161.695312 204.941406 C 157.726562 202.191406 153.734375 199.492188 149.847656 196.632812 C 147.257812 194.71875 144.585938 192.777344 145.097656 188.839844 C 145.34375 187.113281 144.15625 186.117188 142.722656 185.386719 C 138.21875 183.148438 133.683594 180.882812 129.234375 178.5625 C 128.046875 177.941406 126.859375 177.59375 125.535156 177.621094 C 121.328125 177.753906 118.035156 176.027344 115.445312 172.816406 C 113.5 170.417969 111.425781 169.015625 108.214844 170.742188 C 106.296875 171.792969 104.488281 170.335938 102.628906 169.984375 C 97.742188 169.042969 93.613281 166.640625 89.675781 163.835938 C 88.003906 162.648438 87.273438 161.03125 86.871094 158.953125 C 86.328125 156.121094 85.925781 153.398438 82.148438 152.265625 C 68.738281 148.273438 56.242188 141.988281 43.722656 135.867188 C 41.886719 134.976562 39.917969 134.410156 38.082031 133.574219 C 35.195312 132.253906 32.390625 130.984375 30.203125 128.289062 C 28.046875 125.617188 24.296875 124.890625 21.300781 123.242188 C 18.195312 121.542969 14.742188 120.410156 12.207031 117.824219 C 10.859375 116.445312 9.183594 116.851562 7.621094 116.851562 C 4.488281 116.878906 2.332031 115.449219 0.820312 112.804688 C 0.0390625 111.429688 0.0898438 110.136719 1.007812 108.867188 C 5.054688 103.203125 8.535156 97.242188 11.316406 90.796875 C 14.390625 83.648438 19.464844 78.417969 26.617188 74.613281 C 33.875 70.757812 40.726562 66.035156 47.824219 61.800781 C 50.65625 60.101562 52.386719 60.667969 53.625 63.691406 C 55.136719 67.304688 58.511719 68.113281 61.53125 68.328125 C 67.953125 68.816406 73.863281 71.054688 79.90625 72.859375 C 81.472656 73.347656 83.011719 73.589844 84.601562 73.777344 C 87.8125 74.15625 90.054688 76.449219 89.757812 79.65625 C 89.40625 83.351562 90.484375 86.425781 92.804688 89.179688 C 93.023438 89.421875 93.292969 89.664062 93.371094 89.960938 C 94.964844 95.679688 98.472656 99.453125 104.246094 101.152344 C 105.730469 101.585938 106.539062 102.960938 106.703125 104.660156 C 107.621094 113.074219 118.441406 120.195312 127.558594 114.128906 C 129.339844 112.941406 131.230469 111.890625 133.171875 110.945312 C 136.4375 109.328125 139.863281 111.105469 140.242188 114.746094 C 140.484375 117.039062 140.945312 119.007812 142.292969 121.003906 C 143.804688 123.21875 142.859375 126.050781 142.886719 128.613281 C 142.886719 132.0625 143.183594 132.304688 146.207031 130.851562 C 148.148438 129.933594 150.0625 128.988281 151.980469 128.019531 C 153.355469 127.316406 154.785156 126.320312 155.164062 124.941406 C 156.296875 120.871094 159.238281 117.902344 161.261719 114.425781 C 163.042969 111.402344 165.714844 109.597656 169.546875 109.867188 C 172.648438 110.082031 175.804688 109.839844 178.9375 109.945312 C 184.683594 110.109375 190.1875 108.839844 195.746094 107.761719 C 197.527344 107.410156 199.390625 107.410156 201.222656 107.410156 C 205.273438 107.4375 209.050781 106.386719 212.71875 104.824219 C 216.550781 103.175781 220.492188 101.667969 224.132812 99.671875 C 226.964844 98.132812 229.421875 99.132812 231.742188 100.183594 C 236.003906 102.152344 240.457031 102.3125 244.964844 102.367188 C 246.960938 102.394531 247.582031 101.425781 247.609375 99.5625 C 247.636719 97 247.175781 94.4375 248.28125 91.902344 C 250.199219 87.507812 253.542969 85.859375 258.105469 87.425781 C 260.128906 88.125 262.289062 88.125 264.3125 89.042969 C 266.011719 89.800781 267.332031 88.613281 268.222656 87.046875 C 269.789062 84.242188 271.515625 81.519531 272.972656 78.632812 C 274.1875 76.230469 275.914062 74.289062 278.097656 72.941406 C 283.0625 69.839844 285.222656 65.46875 285.089844 59.753906 C 285.007812 56.058594 286.058594 52.550781 287.140625 49.097656 C 287.625 47.507812 287.679688 46.238281 286.546875 44.945312 C 280.609375 37.984375 284.035156 25.660156 293.371094 22.398438 C 296.285156 21.371094 299.121094 21.992188 301.898438 21.832031 Z M 301.898438 21.832031 " fill-opacity="1" fill-rule="nonzero"/></g></svg>