<?xml version="1.0" encoding="UTF-8"?>
<!DOCTYPE svg PUBLIC "-//W3C//DTD SVG 1.1//EN" "http://www.w3.org/Graphics/SVG/1.1/DTD/svg11.dtd">
<!-- Creator: CorelDRAW -->
<svg xmlns="http://www.w3.org/2000/svg" xml:space="preserve" width="153.369mm" height="90.813mm" version="1.1" style="shape-rendering:geometricPrecision; text-rendering:geometricPrecision; image-rendering:optimizeQuality; fill-rule:evenodd; clip-rule:evenodd"
viewBox="0 0 15965.92 9453.75"
 xmlns:xlink="http://www.w3.org/1999/xlink"
 xmlns:xodm="http://www.corel.com/coreldraw/odm/2003">
 <defs>
  <style type="text/css">
   <![CDATA[
    .fil0 {fill:white;fill-rule:nonzero}
    .fil1 {fill:url(#id0)}
   ]]>
  </style>
  <linearGradient id="id0" gradientUnits="userSpaceOnUse" x1="0.01" y1="7445.6" x2="15965.9" y2="7445.6">
   <stop offset="0" style="stop-opacity:1; stop-color:#C11442"/>
   <stop offset="0.160784" style="stop-opacity:1; stop-color:#F17702"/>
   <stop offset="0.301961" style="stop-opacity:1; stop-color:#FFED00"/>
   <stop offset="0.439216" style="stop-opacity:1; stop-color:#16D91D"/>
   <stop offset="0.568627" style="stop-opacity:1; stop-color:#3FA8F2"/>
   <stop offset="0.709804" style="stop-opacity:1; stop-color:#496EFA"/>
   <stop offset="0.85098" style="stop-opacity:1; stop-color:#B619DA"/>
   <stop offset="1" style="stop-opacity:1; stop-color:#FFB0E7"/>
  </linearGradient>
 </defs>
 <g id="OBJECTS">
  <metadata id="CorelCorpID_0Corel-Layer"/>
  <polygon class="fil0" points="1774.16,9453.75 0.17,9453.75 0.17,8744.11 1774.16,8744.11 3548.14,8744.11 5322.08,8744.11 5322.12,8744.11 7096.06,8744.11 8870.04,8744.11 10643.99,8744.11 10644.03,8744.11 12417.94,8744.11 14191.92,8744.11 15965.9,8744.11 15965.9,9453.75 14191.92,9453.75 12417.94,9453.75 10644.03,9453.75 10643.99,9453.75 8870.04,9453.75 7096.06,9453.75 5322.12,9453.75 5322.08,9453.75 3548.14,9453.75 "/>
  <path class="fil0" d="M576.91 5411.28c-8.58,-91.27 -26.65,-157.22 -55.1,-197.43 -28.01,-40.66 -66.42,-60.99 -115.2,-60.99 -36.14,0 -67.77,8.59 -94.42,25.75 -26.66,16.72 -48.34,44.27 -65.51,82.68 -16.72,38.39 -29.37,88.55 -37.5,150.88 -7.68,61.9 -11.74,137.8 -11.74,226.8 0,89.45 4.06,165.34 11.74,227.69 8.13,61.9 20.78,112.04 37.5,150.44 17.17,38.4 38.85,65.96 65.51,82.68 26.65,16.72 58.28,25.3 94.42,25.3 28.46,0 54.21,-5.41 77.25,-15.81 23.04,-10.39 42,-27.56 57.82,-50.59 15.8,-23.5 28,-53.76 36.59,-90.81 8.58,-37.5 13.54,-82.68 14.45,-135.99l124.69 0c-2.26,128.76 -30.27,227.24 -83.12,295.92 -52.86,68.22 -128.74,102.55 -227.68,102.55 -51.05,0 -97.58,-10.39 -139.15,-30.72 -41.11,-20.78 -76.35,-54.66 -104.81,-101.2 -28.46,-46.98 -50.59,-107.97 -66.41,-183.42 -15.37,-75.45 -23.05,-167.61 -23.05,-276.03 0,-107.97 7.68,-199.69 23.05,-275.13 15.81,-75.44 37.94,-136.88 66.41,-183.42 28.46,-46.99 63.7,-80.88 104.81,-101.2 41.57,-20.79 88.1,-31.18 139.15,-31.18 85.83,0 154.04,29.81 204.18,89.45 50.6,59.18 80.87,150.44 90.36,273.78l-124.24 0zm811.11 227.69c0,-97.58 -5.42,-177.54 -15.81,-240.35 -10.39,-62.79 -24.85,-112.48 -42.92,-149.08 -18.07,-36.59 -39.3,-61.89 -63.7,-75.89 -24.39,-14.01 -50.59,-20.79 -78.16,-20.79 -27.56,0 -53.76,6.78 -78.15,20.79 -24.4,14 -45.63,39.3 -63.7,75.89 -18.07,36.6 -32.53,86.29 -43.37,149.08 -10.4,62.8 -15.81,142.76 -15.81,240.35 0,98.03 5.41,177.99 15.81,240.8 10.84,62.79 25.3,112.49 43.37,149.08 18.07,36.59 39.3,61.89 63.7,75.89 24.39,13.55 50.59,20.33 78.15,20.33 27.57,0 53.77,-6.78 78.16,-20.33 24.4,-14 45.63,-39.3 63.7,-75.89 18.07,-36.59 32.53,-86.29 42.92,-149.08 10.39,-62.8 15.81,-142.76 15.81,-240.8zm124.67 0c0,107.52 -7.67,198.78 -23.49,273.78 -15.37,74.54 -37.49,135.53 -65.95,182.97 -28.46,47.43 -62.79,81.76 -103.01,103 -39.76,21.24 -84.03,31.63 -132.82,31.63 -48.78,0 -93.06,-10.39 -133.27,-31.63 -39.76,-21.24 -74.09,-55.57 -102.55,-103 -28.46,-47.44 -50.59,-108.43 -66.41,-182.97 -15.37,-74.99 -23.05,-166.26 -23.05,-273.78 0,-107.07 7.68,-198.33 23.05,-272.87 15.81,-74.99 37.94,-135.99 66.41,-183.42 28.46,-47.44 62.79,-81.32 102.55,-102.56 40.21,-21.23 84.49,-32.07 133.27,-32.07 48.79,0 93.07,10.85 132.82,32.07 40.21,21.24 74.55,55.12 103.01,102.56 28.46,47.43 50.58,108.42 65.95,183.42 15.81,74.54 23.49,165.8 23.49,272.87zm348.95 -575.11l296.36 847.98 3.16 0 0 -847.98 124.23 0 0 1150.66 -133.72 0 -356.9 -1000.67 -3.16 0 0 1000.67 -124.23 0 0 -1150.66 194.26 0zm1080.51 0l0 1045.4 373.15 0 0 105.27 -497.39 0 0 -1150.66 124.23 0zm981.4 575.11c0,-97.58 -5.42,-177.54 -15.81,-240.35 -10.39,-62.79 -24.85,-112.48 -42.92,-149.08 -18.07,-36.59 -39.3,-61.89 -63.7,-75.89 -24.39,-14.01 -50.59,-20.79 -78.16,-20.79 -27.56,0 -53.76,6.78 -78.15,20.79 -24.4,14 -45.63,39.3 -63.7,75.89 -18.07,36.6 -32.53,86.29 -43.37,149.08 -10.4,62.8 -15.81,142.76 -15.81,240.35 0,98.03 5.41,177.99 15.81,240.8 10.84,62.79 25.3,112.49 43.37,149.08 18.07,36.59 39.3,61.89 63.7,75.89 24.39,13.55 50.59,20.33 78.15,20.33 27.57,0 53.77,-6.78 78.16,-20.33 24.4,-14 45.63,-39.3 63.7,-75.89 18.07,-36.59 32.53,-86.29 42.92,-149.08 10.39,-62.8 15.81,-142.76 15.81,-240.8zm124.68 0c0,107.52 -7.67,198.78 -23.49,273.78 -15.37,74.54 -37.5,135.53 -65.96,182.97 -28.46,47.43 -62.79,81.76 -103.01,103 -39.76,21.24 -84.03,31.63 -132.82,31.63 -48.78,0 -93.06,-10.39 -133.27,-31.63 -39.76,-21.24 -74.09,-55.57 -102.55,-103 -28.46,-47.44 -50.59,-108.43 -66.41,-182.97 -15.37,-74.99 -23.05,-166.26 -23.05,-273.78 0,-107.07 7.68,-198.33 23.05,-272.87 15.81,-74.99 37.94,-135.99 66.41,-183.42 28.46,-47.44 62.79,-81.32 102.55,-102.56 40.21,-21.23 84.49,-32.07 133.27,-32.07 48.79,0 93.07,10.85 132.82,32.07 40.21,21.24 74.55,55.12 103.01,102.56 28.46,47.43 50.59,108.42 65.96,183.42 15.81,74.54 23.49,165.8 23.49,272.87zm581.59 -278.74c-2.26,-29.83 -6.78,-56.92 -14.46,-81.77 -7.22,-24.85 -18.06,-46.99 -32.52,-65.51 -14.46,-18.52 -32.53,-33.43 -53.76,-43.82 -21.24,-10.85 -46.53,-16.27 -76.36,-16.27 -47.43,0 -85.83,14.01 -114.75,42.47 -28.46,28 -42.91,64.61 -42.91,109.33 0,43.37 11.29,80.42 34.33,111.59 23.04,30.72 51.5,59.18 85.38,85.83 33.88,26.66 71.38,52.41 111.59,78.16 40.2,25.75 77.7,54.66 111.59,87.2 33.88,32.07 62.35,70.02 84.94,112.94 23.04,42.92 34.33,95.33 34.33,156.77 0,92.62 -25.3,164.45 -75.9,215.95 -50.15,51.5 -123.33,77.25 -218.65,77.25 -44.72,0 -85.38,-8.13 -121.53,-23.94 -35.69,-15.81 -66.41,-38.4 -91.26,-66.86 -24.85,-28.46 -44.27,-62.79 -57.37,-102.55 -13.11,-40.2 -20.33,-84.03 -21.69,-131.47l114.75 0c2.26,67.77 18.98,121.53 50.15,160.84 31.18,39.3 77.71,58.72 139.6,58.72 51.96,0 93.51,-16.26 124.23,-48.33 30.73,-32.53 46.09,-79.51 46.09,-140.95 0,-43.83 -11.29,-81.77 -34.33,-113.85 -22.59,-32.53 -51.05,-62.79 -84.94,-90.36 -33.88,-27.56 -71.38,-54.66 -111.59,-80.41 -40.2,-26.2 -77.7,-55.12 -111.59,-86.75 -33.88,-32.07 -62.35,-67.31 -85.38,-106.61 -23.04,-39.31 -34.33,-86.75 -34.33,-142.32 0,-40.2 6.78,-76.8 19.87,-109.77 13.11,-32.98 32.07,-60.99 56.47,-84.48 24.85,-23.5 53.76,-41.57 87.64,-54.22 33.88,-12.65 71.83,-18.98 113.4,-18.98 82.67,0 149.53,26.66 199.68,80.42 50.6,53.76 78.61,131.01 84.03,231.76l-114.75 0zm815.77 -296.37l201.04 870.11 3.16 0 195.62 -870.11 197.87 0 0 1150.66 -114.74 0 0 -1054.89 -3.16 0 -238.99 1054.89 -81.31 0 -239 -1054.89 -3.15 0 0 1054.89 -114.75 0 0 -1150.66 197.42 0zm917.7 0l0 1150.66 -124.23 0 0 -1150.66 124.23 0zm623.15 296.37c-2.26,-29.83 -6.78,-56.92 -14.46,-81.77 -7.22,-24.85 -18.06,-46.99 -32.52,-65.51 -14.46,-18.52 -32.53,-33.43 -53.76,-43.82 -21.23,-10.85 -46.52,-16.27 -76.35,-16.27 -47.43,0 -85.83,14.01 -114.75,42.47 -28.46,28 -42.91,64.61 -42.91,109.33 0,43.37 11.29,80.42 34.33,111.59 23.04,30.72 51.5,59.18 85.38,85.83 33.88,26.66 71.38,52.41 111.58,78.16 40.2,25.75 77.7,54.66 111.59,87.2 33.88,32.07 62.35,70.02 84.94,112.94 23.04,42.92 34.33,95.33 34.33,156.77 0,92.62 -25.3,164.45 -75.9,215.95 -50.15,51.5 -123.33,77.25 -218.64,77.25 -44.72,0 -85.38,-8.13 -121.53,-23.94 -35.69,-15.81 -66.41,-38.4 -91.26,-66.86 -24.85,-28.46 -44.27,-62.79 -57.37,-102.55 -13.11,-40.2 -20.33,-84.03 -21.69,-131.47l114.75 0c2.26,67.77 18.98,121.53 50.15,160.84 31.18,39.3 77.71,58.72 139.6,58.72 51.95,0 93.5,-16.26 124.22,-48.33 30.73,-32.53 46.09,-79.51 46.09,-140.95 0,-43.83 -11.29,-81.77 -34.33,-113.85 -22.59,-32.53 -51.05,-62.79 -84.94,-90.36 -33.87,-27.56 -71.37,-54.66 -111.58,-80.41 -40.2,-26.2 -77.7,-55.12 -111.59,-86.75 -33.88,-32.07 -62.35,-67.31 -85.38,-106.61 -23.04,-39.31 -34.33,-86.75 -34.33,-142.32 0,-40.2 6.78,-76.8 19.87,-109.77 13.11,-32.98 32.07,-60.99 56.47,-84.48 24.85,-23.5 53.76,-41.57 87.64,-54.22 33.88,-12.65 71.83,-18.98 113.4,-18.98 82.66,0 149.52,26.66 199.67,80.42 50.6,53.76 78.61,131.01 84.03,231.76l-114.75 0zm470.01 -296.37l201.04 870.11 3.16 0 195.61 -870.11 197.88 0 0 1150.66 -114.75 0 0 -1054.89 -3.16 0 -238.97 1054.89 -81.31 0 -239 -1054.89 -3.15 0 0 1054.89 -114.75 0 0 -1150.66 197.42 0zm1277.76 575.11c0,-97.58 -5.42,-177.54 -15.81,-240.35 -10.39,-62.79 -24.85,-112.48 -42.91,-149.08 -18.07,-36.59 -39.3,-61.89 -63.7,-75.89 -24.39,-14.01 -50.59,-20.79 -78.16,-20.79 -27.56,0 -53.76,6.78 -78.15,20.79 -24.4,14 -45.63,39.3 -63.7,75.89 -18.07,36.6 -32.53,86.29 -43.37,149.08 -10.4,62.8 -15.81,142.76 -15.81,240.35 0,98.03 5.41,177.99 15.81,240.8 10.84,62.79 25.3,112.49 43.37,149.08 18.07,36.59 39.3,61.89 63.7,75.89 24.39,13.55 50.59,20.33 78.15,20.33 27.57,0 53.77,-6.78 78.16,-20.33 24.4,-14 45.63,-39.3 63.7,-75.89 18.06,-36.59 32.52,-86.29 42.91,-149.08 10.39,-62.8 15.81,-142.76 15.81,-240.8zm124.68 0c0,107.52 -7.67,198.78 -23.49,273.78 -15.37,74.54 -37.5,135.53 -65.96,182.97 -28.46,47.43 -62.79,81.76 -103,103 -39.76,21.24 -84.03,31.63 -132.82,31.63 -48.78,0 -93.06,-10.39 -133.27,-31.63 -39.76,-21.24 -74.09,-55.57 -102.55,-103 -28.46,-47.44 -50.59,-108.43 -66.41,-182.97 -15.37,-74.99 -23.05,-166.26 -23.05,-273.78 0,-107.07 7.68,-198.33 23.05,-272.87 15.81,-74.99 37.94,-135.99 66.41,-183.42 28.46,-47.44 62.79,-81.32 102.55,-102.56 40.21,-21.23 84.49,-32.07 133.27,-32.07 48.79,0 93.07,10.85 132.82,32.07 40.2,21.24 74.54,55.12 103,102.56 28.46,47.43 50.59,108.42 65.96,183.42 15.81,74.54 23.49,165.8 23.49,272.87zm581.6 -278.74c-2.26,-29.83 -6.78,-56.92 -14.46,-81.77 -7.22,-24.85 -18.06,-46.99 -32.52,-65.51 -14.46,-18.52 -32.53,-33.43 -53.76,-43.82 -21.24,-10.85 -46.53,-16.27 -76.36,-16.27 -47.43,0 -85.83,14.01 -114.75,42.47 -28.46,28 -42.91,64.61 -42.91,109.33 0,43.37 11.29,80.42 34.33,111.59 23.04,30.72 51.5,59.18 85.38,85.83 33.88,26.66 71.38,52.41 111.59,78.16 40.2,25.75 77.7,54.66 111.59,87.2 33.88,32.07 62.35,70.02 84.94,112.94 23.04,42.92 34.33,95.33 34.33,156.77 0,92.62 -25.3,164.45 -75.9,215.95 -50.15,51.5 -123.33,77.25 -218.65,77.25 -44.72,0 -85.38,-8.13 -121.53,-23.94 -35.69,-15.81 -66.41,-38.4 -91.26,-66.86 -24.85,-28.46 -44.27,-62.79 -57.37,-102.55 -13.11,-40.2 -20.33,-84.03 -21.69,-131.47l114.75 0c2.26,67.77 18.98,121.53 50.15,160.84 31.18,39.3 77.71,58.72 139.6,58.72 51.96,0 93.51,-16.26 124.23,-48.33 30.73,-32.53 46.09,-79.51 46.09,-140.95 0,-43.83 -11.29,-81.77 -34.33,-113.85 -22.59,-32.53 -51.05,-62.79 -84.94,-90.36 -33.88,-27.56 -71.38,-54.66 -111.59,-80.41 -40.2,-26.2 -77.7,-55.12 -111.59,-86.75 -33.88,-32.07 -62.35,-67.31 -85.38,-106.61 -23.04,-39.31 -34.33,-86.75 -34.33,-142.32 0,-40.2 6.78,-76.8 19.87,-109.77 13.11,-32.98 32.07,-60.99 56.47,-84.48 24.85,-23.5 53.76,-41.57 87.64,-54.22 33.88,-12.65 71.83,-18.98 113.4,-18.98 82.67,0 149.53,26.66 199.68,80.42 50.6,53.76 78.61,131.01 84.03,231.76l-114.75 0zm758.4 749.03l66.86 0c45.63,0 86.29,-5.87 121.98,-18.06 35.69,-12.2 65.51,-35.7 89.9,-69.58 24.84,-33.87 43.36,-81.31 56.01,-142.31 12.65,-60.98 18.98,-141.4 18.98,-240.34 0,-98.94 -6.33,-178.45 -18.98,-239.44 -12.65,-60.98 -31.17,-108.87 -56.01,-142.75 -24.39,-33.88 -54.22,-56.92 -89.9,-69.12 -35.69,-12.2 -76.35,-18.52 -121.98,-18.52l-66.86 0 0 940.13zm-124.23 -1045.4l213.68 0c60.55,0 114.75,9.48 162.19,28.01 47.88,18.52 88.54,49.69 121.97,93.96 33.44,43.83 59.18,103.01 77.25,177.1 18.07,73.64 27.11,165.8 27.11,276.03 0,110.68 -9.04,202.84 -27.11,276.93 -18.07,73.64 -43.82,132.82 -77.25,177.1 -33.43,43.83 -74.09,75.44 -121.97,93.97 -47.44,18.52 -101.64,27.56 -162.19,27.56l-213.68 0 0 -1150.66zm1314.81 0l0 105.27 -401.62 0 0 392.14 296.36 0 0 104.81 -296.36 0 0 443.18 420.59 0 0 105.27 -544.82 0 0 -1150.66 525.86 0zm297.88 503.73l108.42 0c89,0 150.89,-17.17 184.78,-51.05 33.87,-33.88 51.05,-83.57 51.05,-148.18 0,-64.61 -17.18,-114.3 -51.05,-148.18 -33.88,-33.88 -95.78,-51.05 -184.78,-51.05l-108.42 0 0 398.46zm-124.23 -503.73l277.39 0c45.63,0 87.64,6.78 126.49,19.88 38.85,13.1 72.28,32.52 100.29,58.28 28.46,25.3 50.15,56.46 65.51,93.07 15.35,36.59 23.04,79.05 23.04,126.94 0,64.61 -14.91,122.43 -44.73,173.03 -29.36,50.16 -76.35,86.75 -140.05,108.88l194.26 570.59 -130.56 0 -184.77 -545.29 -162.64 6.78 0 538.52 -124.23 0 0 -1150.66zm1314.81 0l0 105.27 -401.62 0 0 392.14 296.36 0 0 104.81 -296.36 0 0 443.18 420.6 0 0 105.27 -544.83 0 0 -1150.66 525.86 0zm645.28 347.42c-8.58,-91.27 -26.65,-157.22 -55.11,-197.43 -28.01,-40.66 -66.42,-60.99 -115.2,-60.99 -36.14,0 -67.77,8.59 -94.42,25.75 -26.66,16.72 -48.34,44.27 -65.5,82.68 -16.72,38.39 -29.37,88.55 -37.5,150.88 -7.68,61.9 -11.74,137.8 -11.74,226.8 0,89.45 4.06,165.34 11.74,227.69 8.13,61.9 20.78,112.04 37.5,150.44 17.16,38.4 38.84,65.96 65.5,82.68 26.65,16.72 58.28,25.3 94.42,25.3 28.46,0 54.21,-5.41 77.25,-15.81 23.04,-10.39 42,-27.56 57.82,-50.59 15.81,-23.5 28.01,-53.76 36.6,-90.81 8.58,-37.5 13.54,-82.68 14.45,-135.99l124.69 0c-2.26,128.76 -30.27,227.24 -83.12,295.92 -52.86,68.22 -128.75,102.55 -227.69,102.55 -51.05,0 -97.58,-10.39 -139.15,-30.72 -41.1,-20.78 -76.34,-54.66 -104.8,-101.2 -28.46,-46.98 -50.59,-107.97 -66.41,-183.42 -15.37,-75.45 -23.05,-167.61 -23.05,-276.03 0,-107.97 7.68,-199.69 23.05,-275.13 15.81,-75.44 37.94,-136.88 66.41,-183.42 28.46,-46.99 63.7,-80.88 104.8,-101.2 41.57,-20.79 88.1,-31.18 139.15,-31.18 85.83,0 154.05,29.81 204.19,89.45 50.6,59.18 80.87,150.44 90.36,273.78l-124.24 0zm441.56 -347.42l0 497.41 337.91 0 0 -497.41 124.23 0 0 1150.66 -124.23 0 0 -548.45 -337.91 0 0 548.45 -124.23 0 0 -1150.66 124.23 0zm1158.49 575.11c0,-97.58 -5.42,-177.54 -15.81,-240.35 -10.39,-62.79 -24.85,-112.48 -42.92,-149.08 -18.07,-36.59 -39.3,-61.89 -63.69,-75.89 -24.39,-14.01 -50.59,-20.79 -78.16,-20.79 -27.56,0 -53.76,6.78 -78.15,20.79 -24.4,14 -45.63,39.3 -63.7,75.89 -18.07,36.6 -32.53,86.29 -43.37,149.08 -10.4,62.8 -15.81,142.76 -15.81,240.35 0,98.03 5.41,177.99 15.81,240.8 10.84,62.79 25.3,112.49 43.37,149.08 18.07,36.59 39.3,61.89 63.7,75.89 24.39,13.55 50.59,20.33 78.15,20.33 27.57,0 53.77,-6.78 78.16,-20.33 24.39,-14 45.62,-39.3 63.69,-75.89 18.07,-36.59 32.53,-86.29 42.92,-149.08 10.39,-62.8 15.81,-142.76 15.81,-240.8zm124.68 0c0,107.52 -7.67,198.78 -23.49,273.78 -15.37,74.54 -37.5,135.53 -65.96,182.97 -28.46,47.43 -62.79,81.76 -103.01,103 -39.76,21.24 -84.02,31.63 -132.81,31.63 -48.78,0 -93.06,-10.39 -133.27,-31.63 -39.76,-21.24 -74.09,-55.57 -102.55,-103 -28.46,-47.44 -50.59,-108.43 -66.41,-182.97 -15.37,-74.99 -23.05,-166.26 -23.05,-273.78 0,-107.07 7.68,-198.33 23.05,-272.87 15.81,-74.99 37.94,-135.99 66.41,-183.42 28.46,-47.44 62.79,-81.32 102.55,-102.56 40.21,-21.23 84.49,-32.07 133.27,-32.07 48.79,0 93.06,10.85 132.81,32.07 40.21,21.24 74.55,55.12 103.01,102.56 28.46,47.43 50.59,108.42 65.96,183.42 15.81,74.54 23.49,165.8 23.49,272.87zm581.6 -278.74c-2.26,-29.83 -6.78,-56.92 -14.46,-81.77 -7.22,-24.85 -18.06,-46.99 -32.52,-65.51 -14.46,-18.52 -32.53,-33.43 -53.76,-43.82 -21.24,-10.85 -46.53,-16.27 -76.36,-16.27 -47.43,0 -85.83,14.01 -114.75,42.47 -28.46,28 -42.91,64.61 -42.91,109.33 0,43.37 11.29,80.42 34.33,111.59 23.04,30.72 51.5,59.18 85.38,85.83 33.88,26.66 71.38,52.41 111.59,78.16 40.2,25.75 77.7,54.66 111.59,87.2 33.88,32.07 62.35,70.02 84.93,112.94 23.04,42.92 34.33,95.33 34.33,156.77 0,92.62 -25.3,164.45 -75.89,215.95 -50.15,51.5 -123.33,77.25 -218.65,77.25 -44.72,0 -85.38,-8.13 -121.53,-23.94 -35.69,-15.81 -66.41,-38.4 -91.26,-66.86 -24.85,-28.46 -44.27,-62.79 -57.37,-102.55 -13.11,-40.2 -20.33,-84.03 -21.69,-131.47l114.75 0c2.26,67.77 18.98,121.53 50.15,160.84 31.18,39.3 77.71,58.72 139.6,58.72 51.96,0 93.51,-16.26 124.23,-48.33 30.73,-32.53 46.09,-79.51 46.09,-140.95 0,-43.83 -11.29,-81.77 -34.33,-113.85 -22.59,-32.53 -51.05,-62.79 -84.94,-90.36 -33.88,-27.56 -71.38,-54.66 -111.59,-80.41 -40.2,-26.2 -77.7,-55.12 -111.59,-86.75 -33.88,-32.07 -62.35,-67.31 -85.38,-106.61 -23.04,-39.31 -34.33,-86.75 -34.33,-142.32 0,-40.2 6.78,-76.8 19.87,-109.77 13.11,-32.98 32.07,-60.99 56.47,-84.48 24.85,-23.5 53.76,-41.57 87.64,-54.22 33.88,-12.65 71.83,-18.98 113.4,-18.98 82.67,0 149.53,26.66 199.68,80.42 50.59,53.76 78.6,131.01 84.02,231.76l-114.74 0z"/>
  <path class="fil0" d="M152.5 4315.07l0 -4256.58 1956.97 0 0 636.74 -1226.65 0 0 1096.31 944.22 0 0 636.74 -944.22 0 0 1250.06 1308.53 0 0 636.74 -2038.86 0zm3181.95 -2229.39l-777.1 -2027.19 718.61 0 447.87 1350.34 11.7 0 407.76 -1350.34 718.62 0 -737.01 2027.19 825.59 2229.39 -718.62 0 -496.34 -1550.88 -11.7 0 -506.37 1550.88 -720.29 0 837.27 -2229.39zm2152.5 2229.39l0 -4256.58 730.31 0 0 4256.58 -730.31 0zm2871.11 -3207.06c-8.36,-90.25 -25.07,-165.45 -50.14,-227.28 -25.07,-61.83 -56.82,-108.62 -95.25,-143.72 -36.77,-35.09 -76.88,-61.84 -120.33,-76.87 -43.45,-15.04 -85.23,-23.4 -123.66,-23.4 -118.65,0 -208.9,36.77 -272.41,108.63 -61.84,71.86 -93.59,175.47 -93.59,309.17 0,122.01 36.77,233.97 108.63,335.91 73.54,101.95 165.45,205.56 274.08,307.5 110.31,101.95 230.63,203.89 359.31,309.17 130.35,103.62 250.68,218.94 360.98,344.27 110.3,125.34 202.22,264.05 274.08,416.13 71.86,152.08 108.63,324.21 108.63,516.4 0,175.47 -28.42,332.57 -85.24,467.94 -56.82,135.37 -135.36,250.69 -235.64,342.6 -100.27,91.92 -222.27,162.11 -365.99,208.9 -142.05,46.79 -299.14,70.2 -467.94,70.2 -168.79,0 -320.87,-31.75 -454.57,-93.59 -133.7,-63.51 -247.33,-148.74 -339.25,-257.37 -91.91,-108.63 -162.11,-232.3 -213.91,-374.35 -51.81,-142.06 -80.22,-292.46 -88.58,-452.9l695.22 -100.27c15.03,215.58 61.83,377.69 140.38,482.98 78.54,105.29 177.15,158.76 295.8,158.76 125.34,0 227.28,-33.43 305.83,-100.27 78.53,-66.85 118.64,-163.78 118.64,-289.12 0,-142.06 -36.77,-267.39 -108.63,-376.02 -71.85,-110.3 -163.76,-217.26 -274.07,-319.2 -110.3,-101.95 -230.63,-203.89 -360.98,-305.84 -128.68,-101.94 -249.01,-213.91 -359.31,-335.91 -108.62,-122 -200.54,-260.7 -274.07,-412.78 -71.86,-153.76 -108.63,-332.57 -108.63,-536.47 0,-342.6 98.59,-604.97 294.13,-787.13 197.2,-182.17 476.28,-274.09 837.27,-274.09 150.42,0 284.1,25.08 401.08,76.88 118.65,50.14 218.93,122 304.16,213.92 85.23,91.91 153.75,202.22 205.56,327.55 53.48,125.34 88.57,264.05 103.61,412.79l-695.22 76.87zm1709.63 -412.78l-708.59 0 0 -636.74 2145.81 0 0 636.74 -706.91 0 0 3619.84 -730.31 0 0 -3619.84zm1968.67 3619.84l0 -4256.58 730.31 0 0 4256.58 -730.31 0zm2269.49 -2346.38l259.02 0c98.59,0 182.16,-10.02 250.68,-28.41 68.52,-20.06 125.35,-55.15 168.8,-106.95 43.44,-51.81 75.2,-118.67 93.59,-203.89 20.05,-85.23 30.07,-190.52 30.07,-315.85 0,-250.69 -41.78,-422.82 -123.66,-514.74 -81.9,-91.91 -222.28,-138.7 -419.48,-138.7l-259.02 0 0 1308.55zm0 2346.38l-730.32 0 0 -4256.58 1026.12 0c407.78,0 715.27,96.93 924.18,289.12 208.89,192.19 312.5,514.74 312.5,965.97 0,173.8 -15.04,320.87 -45.13,442.87 -28.41,122 -68.52,223.94 -116.98,309.17 -48.47,85.24 -103.6,152.08 -165.44,203.89 -60.17,51.8 -122.01,90.25 -185.51,116.98l620.01 1928.58 -743.68 0 -518.07 -1763.13c-46.79,8.36 -105.29,13.38 -173.8,15.04 -68.52,1.68 -137.04,3.34 -203.88,3.34l0 1744.75z"/>
  <polygon class="fil1" points="-0,7800.42 15965.92,7800.42 15965.92,7090.76 -0,7090.76 "/>
 </g>
</svg>
